<?xml version="1.0" encoding="utf-8" ?>
<!DOCTYPE svg PUBLIC "-//W3C//DTD SVG 1.1//EN" "http://www.w3.org/Graphics/SVG/1.1/DTD/svg11.dtd">
<svg height="204" version="1.1" width="1100" xmlns="http://www.w3.org/2000/svg">
<ellipse cx="22" cy="38" fill="#000000" rx="8.0" ry="8.0" stroke="#000000" stroke-width="1"/>
<rect fill="#00ff" height="46" rx="16" ry="16" stroke="#00ff" stroke-width="1" width="108" x="78" y="14"/>
<rect fill="#ffffff" height="46" rx="16" ry="16" stroke="#000000" stroke-width="1" width="108" x="78" y="14"/>
<rect fill="#ffffff" height="44" rx="16" ry="16" stroke="#ffffff" stroke-width="1" width="106" x="79" y="15"/>
<text font-family="Dialog" font-size="12" x="84" y="27">
Order Products</text>
<line fill="#000000" stroke="#000000" stroke-width="1" x1="78" x2="185" y1="37" y2="37"/>
<rect fill="#00ff" height="46" rx="16" ry="16" stroke="#00ff" stroke-width="1" width="124" x="262" y="14"/>
<rect fill="#ffffff" height="46" rx="16" ry="16" stroke="#000000" stroke-width="1" width="124" x="262" y="14"/>
<rect fill="#ffffff" height="44" rx="16" ry="16" stroke="#ffffff" stroke-width="1" width="122" x="263" y="15"/>
<text font-family="Dialog" font-size="12" x="268" y="27">
Purchase Product</text>
<line fill="#000000" stroke="#000000" stroke-width="1" x1="262" x2="385" y1="37" y2="37"/>
<rect fill="#00ff" height="46" rx="16" ry="16" stroke="#00ff" stroke-width="1" width="111" x="382" y="118"/>
<rect fill="#ffffff" height="46" rx="16" ry="16" stroke="#000000" stroke-width="1" width="111" x="382" y="118"/>
<rect fill="#ffffff" height="44" rx="16" ry="16" stroke="#ffffff" stroke-width="1" width="109" x="383" y="119"/>
<text font-family="Dialog" font-size="12" x="388" y="131">
Update Product</text>
<line fill="#000000" stroke="#000000" stroke-width="1" x1="382" x2="492" y1="141" y2="141"/>
<rect fill="#00ff" height="46" rx="16" ry="16" stroke="#00ff" stroke-width="1" width="111" x="574" y="118"/>
<rect fill="#ffffff" height="46" rx="16" ry="16" stroke="#000000" stroke-width="1" width="111" x="574" y="118"/>
<rect fill="#ffffff" height="44" rx="16" ry="16" stroke="#ffffff" stroke-width="1" width="109" x="575" y="119"/>
<text font-family="Dialog" font-size="12" x="580" y="131">
Display Product</text>
<line fill="#000000" stroke="#000000" stroke-width="1" x1="574" x2="684" y1="141" y2="141"/>
<rect fill="#00ff" height="46" rx="16" ry="16" stroke="#00ff" stroke-width="1" width="102" x="678" y="14"/>
<rect fill="#ffffff" height="46" rx="16" ry="16" stroke="#000000" stroke-width="1" width="102" x="678" y="14"/>
<rect fill="#ffffff" height="44" rx="16" ry="16" stroke="#ffffff" stroke-width="1" width="100" x="679" y="15"/>
<text font-family="Dialog" font-size="12" x="691" y="27">
Sell Product</text>
<line fill="#000000" stroke="#000000" stroke-width="1" x1="678" x2="779" y1="37" y2="37"/>
<rect fill="#00ff" height="46" rx="16" ry="16" stroke="#00ff" stroke-width="1" width="105" x="878" y="14"/>
<rect fill="#ffffff" height="46" rx="16" ry="16" stroke="#000000" stroke-width="1" width="105" x="878" y="14"/>
<rect fill="#ffffff" height="44" rx="16" ry="16" stroke="#ffffff" stroke-width="1" width="103" x="879" y="15"/>
<text font-family="Dialog" font-size="12" x="898" y="27">
Create Bill</text>
<line fill="#000000" stroke="#000000" stroke-width="1" x1="878" x2="982" y1="37" y2="37"/>
<polyline fill="none" points="779,38 878,38" stroke="#000000" stroke-width="1"/>
<line fill="#000000" stroke="#000000" stroke-width="1" x1="866" x2="878" y1="45" y2="38"/>
<line fill="#000000" stroke="#000000" stroke-width="1" x1="866" x2="878" y1="31" y2="38"/>
<text font-family="Dialog" font-size="12" x="801" y="33">
make bill</text>
<polyline fill="none" points="30,38 78,38" stroke="#333399" stroke-width="1"/>
<line fill="#333399" stroke="#333399" stroke-width="1" x1="66" x2="78" y1="45" y2="38"/>
<line fill="#333399" stroke="#333399" stroke-width="1" x1="66" x2="78" y1="31" y2="38"/>
<text font-family="Dialog" font-size="12" x="37" y="33">
order</text>
<polyline fill="none" points="185,37 262,37" stroke="#333399" stroke-width="1"/>
<line fill="#333399" stroke="#333399" stroke-width="1" x1="250" x2="262" y1="44" y2="37"/>
<line fill="#333399" stroke="#333399" stroke-width="1" x1="250" x2="262" y1="30" y2="37"/>
<text font-family="Dialog" font-size="12" x="194" y="32">
purchase</text>
<polyline fill="none" points="422,118 422,54 472,54" stroke="#333399" stroke-width="1"/>
<line fill="#333399" stroke="#333399" stroke-width="1" x1="460" x2="472" y1="61" y2="54"/>
<line fill="#333399" stroke="#333399" stroke-width="1" x1="460" x2="472" y1="47" y2="54"/>
<polyline fill="none" points="614,118 614,54 587,54" stroke="#333399" stroke-width="1"/>
<line fill="#333399" stroke="#333399" stroke-width="1" x1="599" x2="587" y1="47" y2="54"/>
<line fill="#333399" stroke="#333399" stroke-width="1" x1="599" x2="587" y1="61" y2="54"/>
<polyline fill="none" points="526,59 526,142 574,142" stroke="#333399" stroke-width="1"/>
<line fill="#333399" stroke="#333399" stroke-width="1" x1="562" x2="574" y1="149" y2="142"/>
<line fill="#333399" stroke="#333399" stroke-width="1" x1="562" x2="574" y1="135" y2="142"/>
<text font-family="Dialog" font-size="12" x="529" y="118">
display</text>
<rect fill="#00ff" height="46" rx="16" ry="16" stroke="#00ff" stroke-width="1" width="116" x="472" y="14"/>
<rect fill="#ffffff" height="46" rx="16" ry="16" stroke="#000000" stroke-width="1" width="116" x="472" y="14"/>
<rect fill="#ffffff" height="44" rx="16" ry="16" stroke="#ffffff" stroke-width="1" width="114" x="473" y="15"/>
<text font-family="Dialog" font-size="12" x="478" y="27">
Arrange Product</text>
<line fill="#000000" stroke="#000000" stroke-width="1" x1="472" x2="587" y1="37" y2="37"/>
<polyline fill="none" points="385,37 472,37" stroke="#000000" stroke-width="1"/>
<line fill="#000000" stroke="#000000" stroke-width="1" x1="460" x2="472" y1="44" y2="37"/>
<line fill="#000000" stroke="#000000" stroke-width="1" x1="460" x2="472" y1="30" y2="37"/>
<text font-family="Dialog" font-size="12" x="395" y="32">
categorize</text>
<polyline fill="none" points="587,37 678,37" stroke="#333399" stroke-width="1"/>
<line fill="#333399" stroke="#333399" stroke-width="1" x1="666" x2="678" y1="44" y2="37"/>
<line fill="#333399" stroke="#333399" stroke-width="1" x1="666" x2="678" y1="30" y2="37"/>
<text font-family="Dialog" font-size="12" x="621" y="32">
sell</text>
<polyline fill="none" points="726,59 726,190 430,190 430,163" stroke="#333399" stroke-width="1"/>
<line fill="#333399" stroke="#333399" stroke-width="1" x1="437" x2="430" y1="175" y2="163"/>
<line fill="#333399" stroke="#333399" stroke-width="1" x1="423" x2="430" y1="175" y2="163"/>
<text font-family="Dialog" font-size="12" x="560" y="185">
update</text>
<ellipse cx="1074" cy="34" fill="#000000" rx="12.0" ry="12.0" stroke="#000000" stroke-width="1"/>
<ellipse cx="1074" cy="34" fill="#ffffff" rx="11.0" ry="11.0" stroke="#ffffff" stroke-width="1"/>
<ellipse cx="1073" cy="33" fill="#000000" rx="7.5" ry="7.5" stroke="#000000" stroke-width="1"/>
<polyline fill="none" points="982,34 1062,34" stroke="#333399" stroke-width="1"/>
<line fill="#333399" stroke="#333399" stroke-width="1" x1="1050" x2="1062" y1="41" y2="34"/>
<line fill="#333399" stroke="#333399" stroke-width="1" x1="1050" x2="1062" y1="27" y2="34"/>
</svg>
